<svg xmlns:rdf="http://www.w3.org/1999/02/22-rdf-syntax-ns#" xmlns="http://www.w3.org/2000/svg" fill="#000" height="2580" width="5450" version="1.0" xmlns:cc="http://creativecommons.org/ns#" xmlns:dc="http://purl.org/dc/elements/1.1/" font-family="Century Schoolbook L" font-variant="small-caps" font-size="200px" line-height="100%" font-stretch="normal" xml:space="preserve"> <defs>  <marker style="overflow:visible" id="Dot_m" refY="0" refX="0" orient="auto">   <path style="marker-start:none;marker-end:none;" d="m-2.5-1c0,2.76-2.24,5-5,5-2.8,0-5-2.24-5-5s2.2-5,5-5c2.76,0,5,2.24,5,5z" fill-rule="evenodd" transform="matrix(0.4,0,0,0.4,2.8502,0.4)" stroke="#000" stroke-width="1pt"/>  </marker>  <marker style="overflow:visible" id="Arrow1Mstart" refY="0" refX="0" orient="auto">   <path style="marker-start:none;" d="M0,0,5-5-12.5,0,5,5,0,0z" fill-rule="evenodd" transform="scale(0.4,0.4)" stroke="#000" stroke-width="1pt"/>  </marker> </defs> <text style="writing-mode:lr-tb;text-anchor:end;text-align:end;" font-style="italic" y="2365.1155" x="400.36313">x</text> <text style="writing-mode:lr-tb;text-anchor:start;text-align:start;" font-size="140px" y="2415.0762" x="388.18814">n</text> <text style="writing-mode:lr-tb;text-anchor:end;text-align:end;" font-style="italic" y="1632.6406" x="400.60291">x</text> <text style="writing-mode:lr-tb;text-anchor:start;text-align:start;" font-size="140px" y="1682.6014" x="388.42792">3</text> <text style="writing-mode:lr-tb;text-anchor:end;text-align:end;" font-style="italic" y="1068.2554" x="401.58231">x</text> <text style="writing-mode:lr-tb;text-anchor:start;text-align:start;" font-size="140px" y="1118.2162" x="389.40732">2</text> <text style="writing-mode:lr-tb;text-anchor:end;text-align:end;" font-style="italic" y="503.38977" x="404.59213">x</text> <text style="writing-mode:lr-tb;text-anchor:start;text-align:start;" font-size="140px" y="553.35059" x="392.41708">1</text> <text style="writing-mode:lr-tb;text-anchor:start;" font-style="regular" font-family="Arial,Sans" transform="matrix(0,1,-1,0,0,0)" font-size="240px" y="-1127.2762" x="1872.2507">...</text> <path stroke-linejoin="miter" style="marker-start:url(#Arrow1Mstart);" d="M2430,1190,1330,478" stroke="#000" stroke-linecap="butt" stroke-width="10px" fill="none"/> <path stroke-linejoin="miter" style="marker-start:url(#Arrow1Mstart);" d="m2400,1290-1060-240" stroke="#000" stroke-linecap="butt" stroke-width="10.00000191px" fill="none"/> <path stroke-linejoin="miter" style="marker-start:url(#Arrow1Mstart);" d="M2450,1520,1330,2370" stroke="#000" stroke-linecap="butt" stroke-width="10.00000191px" fill="none"/> <path stroke-linejoin="miter" style="marker-start:url(#Arrow1Mstart);marker-end:url(#Dot_m);" d="m888,484-355,0" stroke="#000" stroke-linecap="butt" stroke-width="10px" fill="none"/> <path stroke-linejoin="miter" style="marker-start:url(#Arrow1Mstart);marker-end:url(#Dot_m);" d="m888,1050-355,0" stroke="#000" stroke-linecap="butt" stroke-width="10px" fill="none"/> <path stroke-linejoin="miter" style="marker-start:url(#Arrow1Mstart);marker-end:url(#Dot_m);" d="m888,1620-355,0" stroke="#000" stroke-linecap="butt" stroke-width="10px" fill="none"/> <path stroke-linejoin="miter" style="marker-start:url(#Arrow1Mstart);marker-end:url(#Dot_m);" d="m888,2360-355,0" stroke="#000" stroke-linecap="butt" stroke-width="10px" fill="none"/> <text style="writing-mode:lr-tb;text-anchor:start;" font-style="regular" font-family="Arial,Sans" transform="matrix(0,1,-1,0,0,0)" font-size="240px" y="-365.21619" x="1872.2507">...</text> <rect height="555" width="555" stroke="#000" stroke-miterlimit="4" y="1060" x="3910" stroke-width="12.5" fill="none"/> <text style="writing-mode:lr-tb;text-anchor:start;font-style:normal;" font-size="360px" y="1450.554" x="2630.1077" font-style="regular" font-family="Times New Roman,Times">Σ</text> <path d="m3000,1330c0,149-121,270-270,270s-270-121-270-270,121-270,270-270,270,121,270,270z" stroke="#000" stroke-miterlimit="4" stroke-width="12.5" fill="none"/> <text style="writing-mode:lr-tb;text-anchor:start;font-style:normal;" font-size="360px" y="1374.2332" x="4098.4419" font-style="regular" font-family="Times New Roman,Times">φ</text> <path stroke-linejoin="miter" style="marker-start:url(#Arrow1Mstart);" d="m3850,1330-848,0" stroke="#000" stroke-linecap="butt" stroke-width="10px" fill="none"/> <path stroke-linejoin="miter" style="marker-start:url(#Arrow1Mstart);" d="m4830,1330-355,0" stroke="#000" stroke-linecap="butt" stroke-width="10px" fill="none"/> <text style="writing-mode:lr-tb;text-anchor:middle;text-align:center;font-style:normal;" font-style="regular" font-family="Arial,Sans" font-size="150px" y="1004.1014" x="3452.2825">Netzeingabe</text> <path stroke-linejoin="miter" style="marker-start:url(#Arrow1Mstart);marker-end:url(#Dot_m);" d="m4190,1680,0,371" stroke="#000" stroke-linecap="butt" stroke-width="10px" fill="none"/> <text style="writing-mode:lr-tb;text-anchor:middle;text-align:center;font-style:normal;" font-style="regular" font-family="Arial,Sans" font-size="150px" y="2496.1252" x="4189.1367">Schwellwert</text> <text style="writing-mode:lr-tb;text-anchor:middle;text-align:center;font-style:normal;" font-style="regular" font-family="Arial,Sans" font-size="150px" y="1562.1238" x="5014.9448">Aktivierung</text> <text style="writing-mode:lr-tb;text-anchor:middle;text-align:center;font-style:normal;" font-style="regular" font-family="Arial,Sans" font-size="150px" y="285.08282" x="379.24451">Eingaben</text> <text style="writing-mode:lr-tb;text-anchor:middle;text-align:center;font-style:normal;" font-style="regular" font-family="Arial,Sans" font-size="150px" y="1851.3376" x="2731.1558" fill="#000000"><tspan y="1851.3376" x="2731.1558">Übertragungs-</tspan><tspan y="2001.3376" x="2731.1558">funktion</tspan></text> <text style="writing-mode:lr-tb;text-anchor:middle;text-align:center;font-style:normal;" font-style="regular" font-family="Arial,Sans" font-size="150px" y="673.76691" x="4211.6875" fill="#000000"><tspan y="673.76691" x="4211.6875">Aktivierungs-</tspan><tspan y="823.76691" x="4211.6875">funktion</tspan></text> <path stroke-linejoin="miter" style="marker-start:url(#Arrow1Mstart);" d="M2410,1400,1330,1620" stroke="#000" stroke-linecap="butt" stroke-width="10.00000095px" fill="none"/> <text style="writing-mode:lr-tb;text-anchor:middle;text-align:center;font-style:normal;" font-style="regular" font-family="Arial,Sans" font-size="150px" y="136.59648" x="1135.8856">Gewichtungen</text> <text style="writing-mode:lr-tb;text-anchor:end;text-align:end;" font-style="italic" y="508.89963" x="1150.7649">w</text> <text style="writing-mode:lr-tb;text-anchor:start;text-align:start;" font-size="140px" y="558.86041" x="1138.5898">1<tspan  font-style="italic">j</tspan></text> <path d="m1320,487c0,103-83.3,186-186,186s-186-83.3-186-186,83.3-186,186-186,186,83.3,186,186z" stroke="#000" stroke-miterlimit="4" stroke-dasharray="none" stroke-width="10" fill="none"/> <text style="writing-mode:lr-tb;text-anchor:end;text-align:end;" font-style="italic" y="1073.7651" x="1161.9379">w</text> <text style="writing-mode:lr-tb;text-anchor:start;text-align:start;" font-size="140px" y="1123.726" x="1149.7628">2<tspan  font-style="italic">j</tspan></text> <path d="m1330,1050c0,103-83.3,186-186,186s-186-83.3-186-186,83.3-186,186-186,186,83.3,186,186z" stroke="#000" stroke-miterlimit="4" stroke-dasharray="none" stroke-width="10" fill="none"/> <text style="writing-mode:lr-tb;text-anchor:end;text-align:end;" font-style="italic" y="1638.6427" x="1159.127">w</text> <text style="writing-mode:lr-tb;text-anchor:start;text-align:start;" font-size="140px" y="1688.6035" x="1146.952">3<tspan  font-style="italic">j</tspan></text> <path d="m1330,1620c0,103-83.3,186-186,186s-186-83.3-186-186,83.3-186,186-186,186,83.3,186,186z" stroke="#000" stroke-miterlimit="4" stroke-dasharray="none" stroke-width="10" fill="none"/> <text style="writing-mode:lr-tb;text-anchor:end;text-align:end;" font-style="italic" y="2383.9944" x="1150.8892">w</text> <text style="writing-mode:lr-tb;text-anchor:start;text-align:start;" font-size="140px" y="2433.9553" x="1138.7141">n<tspan  font-style="italic">j</tspan></text> <path d="m1320,2360c0,103-83.3,186-186,186s-186-83.3-186-186,83.3-186,186-186,186,83.3,186,186z" stroke="#000" stroke-miterlimit="4" stroke-dasharray="none" stroke-width="10" fill="none"/> <text style="writing-mode:lr-tb;text-anchor:end;text-align:end;" font-style="italic" y="1203.9962" x="3562.8652">net</text> <text style="writing-mode:lr-tb;text-anchor:start;text-align:start;" font-style="italic" font-size="140px" y="1253.957" x="3550.6902">j</text> <text style="writing-mode:lr-tb;text-anchor:end;text-align:end;font-style:normal;" y="2260.863" x="4228.6265" font-style="regular" font-family="Times New Roman,Times">θ</text> <text style="writing-mode:lr-tb;text-anchor:start;text-align:start;" font-style="italic" font-size="140px" y="2310.8237" x="4216.4517">j</text> <text style="writing-mode:lr-tb;text-anchor:end;text-align:end;" font-style="italic" y="1336.1993" x="5043.2056">o</text> <text style="writing-mode:lr-tb;text-anchor:start;text-align:start;" font-style="italic" font-size="140px" y="1386.16" x="5031.0308">j</text> <flowRoot style="word-spacing:0px;letter-spacing:0px;writing-mode:lr-tb;text-anchor:end;text-align:end;" transform="translate(0,2322)" font-size="20px"><flowRegion><rect y="-70.6" width="219" x="-140" height="54.3"/></flowRegion><flowPara/></flowRoot></svg>