<?xml version="1.0" encoding="UTF-8" standalone="no"?>
<!-- Created with Inkscape (http://www.inkscape.org/) -->

<svg
   width="1000"
   height="1000"
   viewBox="0 0 264.58333 264.58333"
   version="1.1"
   id="svg1"
   xml:space="preserve"
   inkscape:version="1.3 (0e150ed6c4, 2023-07-21)"
   sodipodi:docname="lernos-ki-spiegelei.svg"
   inkscape:export-filename="lernos-ki-spiegelei.png"
   inkscape:export-xdpi="96"
   inkscape:export-ydpi="96"
   xmlns:inkscape="http://www.inkscape.org/namespaces/inkscape"
   xmlns:sodipodi="http://sodipodi.sourceforge.net/DTD/sodipodi-0.dtd"
   xmlns="http://www.w3.org/2000/svg"
   xmlns:svg="http://www.w3.org/2000/svg"><sodipodi:namedview
     id="namedview1"
     pagecolor="#ffffff"
     bordercolor="#666666"
     borderopacity="1.0"
     inkscape:showpageshadow="2"
     inkscape:pageopacity="0.0"
     inkscape:pagecheckerboard="0"
     inkscape:deskcolor="#d1d1d1"
     inkscape:document-units="mm"
     inkscape:zoom="0.70710678"
     inkscape:cx="251.73001"
     inkscape:cy="621.54686"
     inkscape:window-width="3200"
     inkscape:window-height="1711"
     inkscape:window-x="-9"
     inkscape:window-y="-9"
     inkscape:window-maximized="1"
     inkscape:current-layer="g9" /><defs
     id="defs1" /><g
     inkscape:label="Ebene 1"
     inkscape:groupmode="layer"
     id="layer1"><g
       id="g9"><circle
         style="fill:#ffb380;stroke:none;stroke-width:1.00302;stroke-linejoin:round"
         id="path1"
         cx="132.29167"
         cy="132.48949"
         r="126.51973" /><circle
         style="fill:#ff9955;stroke:none;stroke-width:0.761552;stroke-linejoin:round"
         id="path1-2"
         cx="132.29167"
         cy="162.94791"
         r="96.06131" /><circle
         style="fill:#ff7f2a;stroke:none;stroke-width:0.586488;stroke-linejoin:round"
         id="path1-2-8"
         cx="132.29167"
         cy="185.03026"
         r="73.978958" /><circle
         style="fill:#ff6600;stroke:none;stroke-width:0.405387;stroke-linejoin:round"
         id="path1-2-8-6"
         cx="132.29167"
         cy="207.87407"
         r="51.135143" /><text
         xml:space="preserve"
         style="font-style:normal;font-variant:normal;font-weight:bold;font-stretch:normal;font-size:11.1454px;line-height:1.25;font-family:'Open Sans';-inkscape-font-specification:'Open Sans, Bold';font-variant-ligatures:normal;font-variant-caps:normal;font-variant-numeric:normal;font-variant-east-asian:normal;fill:#333333;fill-opacity:1;stroke:none;stroke-width:0.278634"
         x="74.51844"
         y="33.635052"
         id="text1"><tspan
           id="tspan1"
           style="font-style:normal;font-variant:normal;font-weight:bold;font-stretch:normal;font-size:11.1454px;font-family:'Open Sans';-inkscape-font-specification:'Open Sans, Bold';font-variant-ligatures:normal;font-variant-caps:normal;font-variant-numeric:normal;font-variant-east-asian:normal;fill:#333333;stroke-width:0.278634"
           x="74.51844"
           y="33.635052"
           sodipodi:role="line">Artificial Intelligence</tspan></text><text
         xml:space="preserve"
         style="font-style:normal;font-variant:normal;font-weight:bold;font-stretch:normal;font-size:8.96732px;line-height:1.25;font-family:'Open Sans';-inkscape-font-specification:'Open Sans, Bold';font-variant-ligatures:normal;font-variant-caps:normal;font-variant-numeric:normal;font-variant-east-asian:normal;fill:#333333;fill-opacity:1;stroke:none;stroke-width:0.224182"
         x="132.26758"
         y="46.30751"
         id="text1-9"><tspan
           id="tspan1-6"
           style="font-style:normal;font-variant:normal;font-weight:normal;font-stretch:normal;font-size:8.96732px;font-family:'Open Sans';-inkscape-font-specification:'Open Sans, Normal';font-variant-ligatures:normal;font-variant-caps:normal;font-variant-numeric:normal;font-variant-east-asian:normal;text-align:center;text-anchor:middle;fill:#333333;stroke-width:0.224182"
           x="132.26758"
           y="46.30751"
           sodipodi:role="line">Software, durch die Computer</tspan><tspan
           style="font-style:normal;font-variant:normal;font-weight:normal;font-stretch:normal;font-size:8.96732px;font-family:'Open Sans';-inkscape-font-specification:'Open Sans, Normal';font-variant-ligatures:normal;font-variant-caps:normal;font-variant-numeric:normal;font-variant-east-asian:normal;text-align:center;text-anchor:middle;fill:#333333;stroke-width:0.224182"
           x="132.26758"
           y="57.516663"
           sodipodi:role="line"
           id="tspan3">menschliche Intelligenz imitieren können</tspan></text><text
         xml:space="preserve"
         style="font-style:normal;font-variant:normal;font-weight:normal;font-stretch:normal;font-size:11.1454px;line-height:1.25;font-family:'Open Sans';-inkscape-font-specification:'Open Sans, Normal';font-variant-ligatures:normal;font-variant-caps:normal;font-variant-numeric:normal;font-variant-east-asian:normal;fill:#333333;fill-opacity:1;stroke:none;stroke-width:0.278634"
         x="119.30684"
         y="21.466957"
         id="text1-0"><tspan
           id="tspan1-5"
           style="font-style:normal;font-variant:normal;font-weight:normal;font-stretch:normal;font-size:11.1454px;font-family:'Open Sans';-inkscape-font-specification:'Open Sans, Normal';font-variant-ligatures:normal;font-variant-caps:normal;font-variant-numeric:normal;font-variant-east-asian:normal;fill:#333333;stroke-width:0.278634"
           x="119.30684"
           y="21.466957"
           sodipodi:role="line">1956</tspan></text><text
         xml:space="preserve"
         style="font-style:normal;font-variant:normal;font-weight:bold;font-stretch:normal;font-size:9.80756px;line-height:1.25;font-family:'Open Sans';-inkscape-font-specification:'Open Sans, Bold';font-variant-ligatures:normal;font-variant-caps:normal;font-variant-numeric:normal;font-variant-east-asian:normal;fill:#333333;fill-opacity:1;stroke:none;stroke-width:0.245188"
         x="88.119339"
         y="88.690102"
         id="text1-8"><tspan
           id="tspan1-4"
           style="font-style:normal;font-variant:normal;font-weight:bold;font-stretch:normal;font-size:9.80756px;font-family:'Open Sans';-inkscape-font-specification:'Open Sans, Bold';font-variant-ligatures:normal;font-variant-caps:normal;font-variant-numeric:normal;font-variant-east-asian:normal;fill:#333333;stroke-width:0.245188"
           x="88.119339"
           y="88.690102"
           sodipodi:role="line">Machine Learning</tspan></text><text
         xml:space="preserve"
         style="font-style:normal;font-variant:normal;font-weight:bold;font-stretch:normal;font-size:7.51013px;line-height:1.25;font-family:'Open Sans';-inkscape-font-specification:'Open Sans, Bold';font-variant-ligatures:normal;font-variant-caps:normal;font-variant-numeric:normal;font-variant-east-asian:normal;fill:#333333;fill-opacity:1;stroke:none;stroke-width:0.187752"
         x="132.15965"
         y="98.26149"
         id="text1-8-7"><tspan
           id="tspan1-4-6"
           style="font-style:normal;font-variant:normal;font-weight:normal;font-stretch:normal;font-size:7.51013px;font-family:'Open Sans';-inkscape-font-specification:'Open Sans, Normal';font-variant-ligatures:normal;font-variant-caps:normal;font-variant-numeric:normal;font-variant-east-asian:normal;text-align:center;text-anchor:middle;fill:#333333;stroke-width:0.187752"
           x="132.15965"
           y="98.26149"
           sodipodi:role="line">Algorithmen, deren Leistung sich</tspan><tspan
           style="font-style:normal;font-variant:normal;font-weight:normal;font-stretch:normal;font-size:7.51013px;font-family:'Open Sans';-inkscape-font-specification:'Open Sans, Normal';font-variant-ligatures:normal;font-variant-caps:normal;font-variant-numeric:normal;font-variant-east-asian:normal;text-align:center;text-anchor:middle;fill:#333333;stroke-width:0.187752"
           x="132.15965"
           y="107.64915"
           sodipodi:role="line"
           id="tspan4">durch Daten über die Zeit verbessert</tspan></text><text
         xml:space="preserve"
         style="font-style:normal;font-variant:normal;font-weight:bold;font-stretch:normal;font-size:9.80756px;line-height:1.25;font-family:'Open Sans';-inkscape-font-specification:'Open Sans, Bold';font-variant-ligatures:normal;font-variant-caps:normal;font-variant-numeric:normal;font-variant-east-asian:normal;fill:#333333;fill-opacity:1;stroke:none;stroke-width:0.245188"
         x="120.87505"
         y="79.358559"
         id="text1-8-2"><tspan
           id="tspan1-4-0"
           style="font-style:normal;font-variant:normal;font-weight:normal;font-stretch:normal;font-size:9.80756px;font-family:'Open Sans';-inkscape-font-specification:'Open Sans, Normal';font-variant-ligatures:normal;font-variant-caps:normal;font-variant-numeric:normal;font-variant-east-asian:normal;fill:#333333;stroke-width:0.245188"
           x="120.87505"
           y="79.358559"
           sodipodi:role="line">1997</tspan></text><text
         xml:space="preserve"
         style="font-style:normal;font-variant:normal;font-weight:bold;font-stretch:normal;font-size:9.32976px;line-height:1.25;font-family:'Open Sans';-inkscape-font-specification:'Open Sans, Bold';font-variant-ligatures:normal;font-variant-caps:normal;font-variant-numeric:normal;font-variant-east-asian:normal;fill:#333333;fill-opacity:1;stroke:none;stroke-width:0.233243"
         x="98.279953"
         y="133.4427"
         id="text1-8-3"><tspan
           id="tspan1-4-1"
           style="font-style:normal;font-variant:normal;font-weight:bold;font-stretch:normal;font-size:9.32976px;font-family:'Open Sans';-inkscape-font-specification:'Open Sans, Bold';font-variant-ligatures:normal;font-variant-caps:normal;font-variant-numeric:normal;font-variant-east-asian:normal;fill:#333333;stroke-width:0.233243"
           x="98.279953"
           y="133.4427"
           sodipodi:role="line">Deep Learning</tspan></text><text
         xml:space="preserve"
         style="font-style:normal;font-variant:normal;font-weight:bold;font-stretch:normal;font-size:7.33609px;line-height:1.25;font-family:'Open Sans';-inkscape-font-specification:'Open Sans, Bold';font-variant-ligatures:normal;font-variant-caps:normal;font-variant-numeric:normal;font-variant-east-asian:normal;fill:#333333;fill-opacity:1;stroke:none;stroke-width:0.183401"
         x="132.21463"
         y="143.9393"
         id="text1-8-3-70"><tspan
           id="tspan1-4-1-7"
           style="font-style:normal;font-variant:normal;font-weight:normal;font-stretch:normal;font-size:7.33609px;font-family:Sans;-inkscape-font-specification:'Sans, Normal';font-variant-ligatures:normal;font-variant-caps:normal;font-variant-numeric:normal;font-variant-east-asian:normal;text-align:center;text-anchor:middle;fill:#333333;stroke-width:0.183401"
           x="132.21463"
           y="143.9393"
           sodipodi:role="line">Künstliche, neuronale Netze,</tspan><tspan
           style="font-style:normal;font-variant:normal;font-weight:normal;font-stretch:normal;font-size:7.33609px;font-family:Sans;-inkscape-font-specification:'Sans, Normal';font-variant-ligatures:normal;font-variant-caps:normal;font-variant-numeric:normal;font-variant-east-asian:normal;text-align:center;text-anchor:middle;fill:#333333;stroke-width:0.183401"
           x="132.21463"
           y="153.28421"
           sodipodi:role="line"
           id="tspan5">die Muster aus Daten lernen</tspan></text><text
         xml:space="preserve"
         style="font-style:normal;font-variant:normal;font-weight:normal;font-stretch:normal;font-size:9.32976px;line-height:1.25;font-family:'Open Sans';-inkscape-font-specification:'Open Sans, Normal';font-variant-ligatures:normal;font-variant-caps:normal;font-variant-numeric:normal;font-variant-east-asian:normal;fill:#333333;fill-opacity:1;stroke:none;stroke-width:0.233243"
         x="121.63169"
         y="123.57034"
         id="text1-8-3-7"><tspan
           id="tspan1-4-1-2"
           style="font-style:normal;font-variant:normal;font-weight:normal;font-stretch:normal;font-size:9.32976px;font-family:'Open Sans';-inkscape-font-specification:'Open Sans, Normal';font-variant-ligatures:normal;font-variant-caps:normal;font-variant-numeric:normal;font-variant-east-asian:normal;fill:#333333;stroke-width:0.233243"
           x="121.63169"
           y="123.57034"
           sodipodi:role="line">2017</tspan></text><text
         xml:space="preserve"
         style="font-style:normal;font-variant:normal;font-weight:bold;font-stretch:normal;font-size:8.25537px;line-height:1.25;font-family:'Open Sans';-inkscape-font-specification:'Open Sans, Bold';font-variant-ligatures:normal;font-variant-caps:normal;font-variant-numeric:normal;font-variant-east-asian:normal;fill:#333333;fill-opacity:1;stroke:none;stroke-width:0.206384"
         x="104.43382"
         y="179.00151"
         id="text1-8-3-9"><tspan
           id="tspan1-4-1-3"
           style="font-style:normal;font-variant:normal;font-weight:bold;font-stretch:normal;font-size:8.25537px;font-family:'Open Sans';-inkscape-font-specification:'Open Sans, Bold';font-variant-ligatures:normal;font-variant-caps:normal;font-variant-numeric:normal;font-variant-east-asian:normal;fill:#333333;stroke-width:0.206384"
           x="104.43382"
           y="179.00151"
           sodipodi:role="line">Generative AI</tspan></text><circle
         style="fill:#666666;stroke:none;stroke-width:0.157247;stroke-linejoin:round"
         id="path1-2-8-6-6"
         cx="110.45154"
         cy="220.71196"
         r="19.834925" /><circle
         style="fill:#666666;stroke:none;stroke-width:0.157247;stroke-linejoin:round"
         id="path1-2-8-6-6-4"
         cx="154.13181"
         cy="220.52138"
         r="19.834925" /><text
         xml:space="preserve"
         style="font-style:normal;font-variant:normal;font-weight:bold;font-stretch:normal;font-size:7.2759px;line-height:1.25;font-family:'Open Sans';-inkscape-font-specification:'Open Sans, Bold';font-variant-ligatures:normal;font-variant-caps:normal;font-variant-numeric:normal;font-variant-east-asian:normal;fill:#333333;fill-opacity:1;stroke:none;stroke-width:0.181897"
         x="110.281"
         y="214.17857"
         id="text1-8-3-9-7"><tspan
           id="tspan1-4-1-3-23"
           style="font-style:normal;font-variant:normal;font-weight:bold;font-stretch:normal;font-size:7.2759px;font-family:'Open Sans';-inkscape-font-specification:'Open Sans, Bold';font-variant-ligatures:normal;font-variant-caps:normal;font-variant-numeric:normal;font-variant-east-asian:normal;text-align:center;text-anchor:middle;fill:#ffffff;stroke-width:0.181897"
           x="110.281"
           y="214.17857"
           sodipodi:role="line">Large</tspan><tspan
           style="font-style:normal;font-variant:normal;font-weight:bold;font-stretch:normal;font-size:7.2759px;font-family:'Open Sans';-inkscape-font-specification:'Open Sans, Bold';font-variant-ligatures:normal;font-variant-caps:normal;font-variant-numeric:normal;font-variant-east-asian:normal;text-align:center;text-anchor:middle;fill:#ffffff;stroke-width:0.181897"
           x="110.281"
           y="223.27345"
           sodipodi:role="line"
           id="tspan10">Language</tspan><tspan
           style="font-style:normal;font-variant:normal;font-weight:bold;font-stretch:normal;font-size:7.2759px;font-family:'Open Sans';-inkscape-font-specification:'Open Sans, Bold';font-variant-ligatures:normal;font-variant-caps:normal;font-variant-numeric:normal;font-variant-east-asian:normal;text-align:center;text-anchor:middle;fill:#ffffff;stroke-width:0.181897"
           x="110.281"
           y="232.36832"
           sodipodi:role="line"
           id="tspan11">Models</tspan></text><text
         xml:space="preserve"
         style="font-style:normal;font-variant:normal;font-weight:bold;font-stretch:normal;font-size:7.2759px;line-height:1.25;font-family:'Open Sans';-inkscape-font-specification:'Open Sans, Bold';font-variant-ligatures:normal;font-variant-caps:normal;font-variant-numeric:normal;font-variant-east-asian:normal;fill:#333333;fill-opacity:1;stroke:none;stroke-width:0.181897"
         x="154.07852"
         y="218.72194"
         id="text1-8-3-9-7-7"><tspan
           id="tspan1-4-1-3-23-9"
           style="font-style:normal;font-variant:normal;font-weight:bold;font-stretch:normal;font-size:7.2759px;font-family:'Open Sans';-inkscape-font-specification:'Open Sans, Bold';font-variant-ligatures:normal;font-variant-caps:normal;font-variant-numeric:normal;font-variant-east-asian:normal;text-align:center;text-anchor:middle;fill:#ffffff;stroke-width:0.181897"
           x="154.07852"
           y="218.72194"
           sodipodi:role="line">Diffusion</tspan><tspan
           style="font-style:normal;font-variant:normal;font-weight:bold;font-stretch:normal;font-size:7.2759px;font-family:'Open Sans';-inkscape-font-specification:'Open Sans, Bold';font-variant-ligatures:normal;font-variant-caps:normal;font-variant-numeric:normal;font-variant-east-asian:normal;text-align:center;text-anchor:middle;fill:#ffffff;stroke-width:0.181897"
           x="154.07852"
           y="227.81682"
           sodipodi:role="line"
           id="tspan11-3">Models</tspan></text><text
         xml:space="preserve"
         style="font-style:normal;font-variant:normal;font-weight:bold;font-stretch:normal;font-size:6.85159px;line-height:1.25;font-family:'Open Sans';-inkscape-font-specification:'Open Sans, Bold';font-variant-ligatures:normal;font-variant-caps:normal;font-variant-numeric:normal;font-variant-east-asian:normal;fill:#333333;fill-opacity:1;stroke:none;stroke-width:0.17129"
         x="131.70122"
         y="188.21529"
         id="text1-8-3-9-9"><tspan
           style="font-style:normal;font-variant:normal;font-weight:normal;font-stretch:normal;font-size:5.47453px;font-family:Sans;-inkscape-font-specification:'Sans, Normal';font-variant-ligatures:normal;font-variant-caps:normal;font-variant-numeric:normal;font-variant-east-asian:normal;text-align:center;text-anchor:middle;fill:#333333;stroke-width:0.17129"
           x="131.70122"
           y="188.21529"
           sodipodi:role="line"
           id="tspan9">Neuronale Netze, die Daten</tspan><tspan
           style="font-style:normal;font-variant:normal;font-weight:normal;font-stretch:normal;font-size:5.47453px;font-family:Sans;-inkscape-font-specification:'Sans, Normal';font-variant-ligatures:normal;font-variant-caps:normal;font-variant-numeric:normal;font-variant-east-asian:normal;text-align:center;text-anchor:middle;fill:#333333;stroke-width:0.17129"
           x="131.70122"
           y="196.77977"
           sodipodi:role="line"
           id="tspan8">aus Modellen generieren können</tspan></text><text
         xml:space="preserve"
         style="font-style:normal;font-variant:normal;font-weight:bold;font-stretch:normal;font-size:8.25537px;line-height:1.25;font-family:'Open Sans';-inkscape-font-specification:'Open Sans, Bold';font-variant-ligatures:normal;font-variant-caps:normal;font-variant-numeric:normal;font-variant-east-asian:normal;fill:#333333;fill-opacity:1;stroke:none;stroke-width:0.206384"
         x="123.56871"
         y="169.53464"
         id="text1-8-3-9-6"><tspan
           id="tspan1-4-1-3-2"
           style="font-style:normal;font-variant:normal;font-weight:normal;font-stretch:normal;font-size:8.25537px;font-family:'Open Sans';-inkscape-font-specification:'Open Sans, Normal';font-variant-ligatures:normal;font-variant-caps:normal;font-variant-numeric:normal;font-variant-east-asian:normal;fill:#333333;stroke-width:0.206384"
           x="123.56871"
           y="169.53464"
           sodipodi:role="line">2021</tspan></text><g
         transform="matrix(0.21851535,0,0,0.21849266,80.026705,243.8497)"
         id="g260"
         inkscape:export-filename="/mnt/hgfs/Bov/Documents/Work/2007/cc/identity/srr buttons/big/by.png"
         inkscape:export-xdpi="300.23013"
         inkscape:export-ydpi="300.23013"><path
           id="path3817_1_"
           nodetypes="ccccccc"
           d="m 181.96579,0.51074 114.06396,0.20264 c 1.59375,0 3.01758,-0.23633 3.01758,3.18066 l -0.13965,37.56689 H 179.08737 V 3.75439 c 0,-1.68505 0.16309,-3.24365 2.87842,-3.24365 z"
           style="fill:#aab2ab" /><path
           d="m 297.29636,0 h -116.229 c -1.24658,0 -2.26123,1.01416 -2.26123,2.26074 v 39.49658 c 0,0.28174 0.229,0.51025 0.51074,0.51025 h 119.73047 c 0.28174,0 0.51074,-0.22852 0.51074,-0.51025 V 2.26074 C 299.55807,1.01416 298.54343,0 297.29636,0 Z M 181.06735,1.02148 h 116.229 c 0.68408,0 1.24023,0.55566 1.24023,1.23926 0,0 0,15.94824 0,27.44971 h -83.34424 c -3.04492,5.50586 -8.91113,9.24414 -15.64355,9.24414 -6.73535,0 -12.6001,-3.73486 -15.64355,-9.24414 h -4.07764 c 0,-11.50146 0,-27.44971 0,-27.44971 1e-5,-0.68359 0.55616,-1.23926 1.23975,-1.23926 z"
           id="path263" /><g
           enable-background="new    "
           id="g265"><path
             d="m 253.07761,32.95605 c 0.31738,0 0.60742,0.02832 0.87012,0.08398 0.26172,0.05566 0.48535,0.14746 0.67285,0.27539 0.18652,0.12695 0.33203,0.29688 0.43457,0.50781 0.10254,0.21191 0.1543,0.47266 0.1543,0.78418 0,0.33594 -0.0762,0.61523 -0.22949,0.83887 -0.15234,0.22461 -0.37891,0.40723 -0.67773,0.55078 0.41211,0.11816 0.71973,0.3252 0.92285,0.62109 0.20312,0.29589 0.30469,0.65234 0.30469,1.06934 0,0.33594 -0.0654,0.62695 -0.19629,0.87305 -0.13086,0.24512 -0.30762,0.44629 -0.52832,0.60156 -0.22168,0.15625 -0.47461,0.27148 -0.75781,0.3457 -0.28418,0.0752 -0.5752,0.1123 -0.875,0.1123 H 249.936 v -6.66406 h 3.14161 z m -0.1875,2.69532 c 0.26172,0 0.47656,-0.0625 0.64551,-0.18652 0.16797,-0.12402 0.25195,-0.3252 0.25195,-0.60449 0,-0.15527 -0.0283,-0.2832 -0.084,-0.38184 -0.0566,-0.09961 -0.13086,-0.17676 -0.22461,-0.2334 -0.0937,-0.05566 -0.20117,-0.09473 -0.32227,-0.11621 -0.1211,-0.02148 -0.24805,-0.03223 -0.37793,-0.03223 h -1.37402 v 1.55469 z m 0.0859,2.82812 c 0.14355,0 0.28027,-0.01367 0.41113,-0.04199 0.13086,-0.02832 0.24609,-0.0752 0.34668,-0.13965 0.0996,-0.06543 0.17871,-0.1543 0.23828,-0.2666 0.0596,-0.11133 0.0889,-0.25488 0.0889,-0.42871 0,-0.3418 -0.0967,-0.58594 -0.29004,-0.73242 -0.19336,-0.14551 -0.44922,-0.21875 -0.7666,-0.21875 h -1.59961 v 1.82812 z"
             id="path267"
             style="fill:#ffffff" /><path
             d="m 255.78854,32.95605 h 1.64355 l 1.56055,2.63184 1.55078,-2.63184 h 1.63379 l -2.47363,4.10645 v 2.55762 h -1.46875 v -2.59473 z"
             id="path269"
             style="fill:#ffffff" /></g><g
           id="g5908_1_"
           transform="matrix(0.872921,0,0,0.872921,50.12536,143.2144)"><path
             id="path5906_1_"
             cx="296.35416"
             ry="22.939548"
             cy="264.3577"
             type="arc"
             rx="22.939548"
             d="m 186.90065,-141.46002 c 0.006,8.68079 -7.02786,15.7215 -15.70808,15.72711 -8.68022,0.006 -15.72206,-7.02734 -15.7271,-15.70807 0,-0.006 0,-0.0123 0,-0.019 -0.005,-8.68079 7.02786,-15.7215 15.70808,-15.72656 8.68135,-0.006 15.72206,7.02734 15.7271,15.70813 0,0.006 0,0.0123 0,0.0184 z"
             style="fill:#ffffff" /><g
             id="g5706_1_"
             transform="translate(-289.6157,99.0653)"><path
               id="path5708_1_"
               d="m 473.57574,-253.32751 c 3.48541,3.48541 5.22839,7.75391 5.22839,12.80219 0,5.04938 -1.71277,9.27203 -5.13831,12.66791 -3.63531,3.5766 -7.93182,5.36432 -12.88947,5.36432 -4.89777,0 -9.11987,-1.77319 -12.66513,-5.31952 -3.54581,-3.54584 -5.31845,-7.78302 -5.31845,-12.71271 0,-4.92859 1.77264,-9.19598 5.31845,-12.80219 3.4552,-3.48651 7.67728,-5.22949 12.66513,-5.22949 5.0483,-10e-6 9.31404,1.74297 12.79939,5.22949 z m -23.11798,2.34484 c -2.94672,2.97638 -4.41953,6.46289 -4.41953,10.46234 0,3.99835 1.45828,7.45526 4.37424,10.37067 2.9165,2.9165 6.38849,4.37421 10.41705,4.37421 4.02856,0 7.53015,-1.47223 10.50653,-4.4184 2.82593,-2.73645 4.23944,-6.17706 4.23944,-10.32648 0,-4.11804 -1.43646,-7.61346 -4.30768,-10.48468 -2.87067,-2.87067 -6.34991,-4.30658 -10.43829,-4.30658 -4.0884,1e-5 -7.54638,1.44318 -10.37176,4.32892 z m 7.75449,8.70319 c -0.45029,-0.98169 -1.1243,-1.47284 -2.02322,-1.47284 -1.58917,0 -2.38345,1.07007 -2.38345,3.20911 0,2.13953 0.79428,3.2085 2.38345,3.2085 1.04938,0 1.79892,-0.52075 2.24866,-1.56451 l 2.20276,1.17297 c -1.04993,1.86548 -2.62509,2.79846 -4.72549,2.79846 -1.6199,0 -2.91763,-0.4967 -3.89206,-1.48901 -0.9761,-0.99341 -1.46274,-2.36273 -1.46274,-4.10852 0,-1.71503 0.50229,-3.07654 1.50748,-4.08502 1.00519,-1.00854 2.25702,-1.51257 3.75781,-1.51257 2.22012,0 3.80981,0.87488 4.77081,2.62286 z m 10.36337,0 c -0.45087,-0.98169 -1.11145,-1.47284 -1.98242,-1.47284 -1.62103,0 -2.43213,1.07007 -2.43213,3.20911 0,2.13953 0.8111,3.2085 2.43213,3.2085 1.05109,0 1.78717,-0.52075 2.20728,-1.56451 l 2.25201,1.17297 c -1.04828,1.86548 -2.62122,2.79846 -4.71771,2.79846 -1.61768,0 -2.9126,-0.4967 -3.88647,-1.48901 -0.97217,-0.99341 -1.45935,-2.36273 -1.45935,-4.10852 0,-1.71503 0.49445,-3.07654 1.48285,-4.08502 0.98785,-1.00854 2.2453,-1.51257 3.7735,-1.51257 2.21619,0 3.80365,0.87488 4.76129,2.62286 z" /></g></g><g
           id="g275"><circle
             cx="255.55124"
             cy="15.31348"
             r="10.80664"
             id="circle277"
             style="fill:#ffffff" /><g
             id="g279"><path
               d="m 258.67819,12.18701 c 0,-0.4165 -0.33789,-0.75391 -0.75293,-0.75391 h -4.77344 c -0.41504,0 -0.75293,0.3374 -0.75293,0.75391 v 4.77295 h 1.33105 v 5.65186 h 3.61719 v -5.65186 h 1.33105 v -4.77295 z"
               id="path281" /><circle
               cx="255.53854"
               cy="9.1723604"
               r="1.63281"
               id="circle283" /></g><path
             clip-rule="evenodd"
             d="m 255.5239,3.40723 c -3.23242,0 -5.96875,1.12793 -8.20801,3.38379 -2.29785,2.3335 -3.44629,5.0957 -3.44629,8.28467 0,3.18897 1.14844,5.93164 3.44629,8.22656 2.29785,2.29443 5.03418,3.44189 8.20801,3.44189 3.21289,0 5.99805,-1.15625 8.35352,-3.47119 2.21973,-2.19727 3.33008,-4.92969 3.33008,-8.19727 0,-3.26758 -1.12988,-6.02881 -3.3877,-8.28467 -2.25977,-2.25585 -5.02442,-3.38378 -8.2959,-3.38378 z m 0.0293,2.09961 c 2.64844,0 4.89746,0.93408 6.74707,2.80127 1.86914,1.84717 2.80371,4.10303 2.80371,6.76758 0,2.68359 -0.91504,4.91064 -2.74512,6.68018 -1.92871,1.90625 -4.19629,2.85889 -6.80566,2.85889 -2.61035,0 -4.85938,-0.94287 -6.74707,-2.82959 -1.88965,-1.88672 -2.83301,-4.12305 -2.83301,-6.70947 0,-2.58691 0.9541,-4.84229 2.8623,-6.76758 1.83009,-1.8672 4.06934,-2.80128 6.71778,-2.80128 z"
             id="path285"
             style="fill-rule:evenodd" /></g></g></g><text
       xml:space="preserve"
       style="font-style:normal;font-weight:normal;font-size:10.5833px;line-height:1.25;font-family:sans-serif;fill:#000000;fill-opacity:1;stroke:none;stroke-width:0.264583"
       x="324.64374"
       y="149.48958"
       id="text2"><tspan
         sodipodi:role="line"
         id="tspan2"
         style="stroke-width:0.264583"
         x="324.64374"
         y="149.48958"> </tspan></text></g></svg>
